<svg xmlns="http://www.w3.org/2000/svg"  viewBox="0 0 64 64" width="64px" height="64px"><linearGradient id="9u6zqN3Bt2WL6GDEge3Qla" x1="45.889" x2="45.82" y1="47.923" y2="31.747" gradientTransform="matrix(1 0 0 -1 0 64)" gradientUnits="userSpaceOnUse"><stop offset="0" stop-color="#6dc7ff"/><stop offset="1" stop-color="#e6abff"/></linearGradient><polygon fill="url(#9u6zqN3Bt2WL6GDEge3Qla)" points="50.474,16 41.237,16 36.618,24 41.237,32 50.474,32 55.093,24"/><linearGradient id="9u6zqN3Bt2WL6GDEge3Qlb" x1="32.001" x2="32.001" y1="57.178" y2="7.058" gradientTransform="matrix(1 0 0 -1 0 64)" gradientUnits="userSpaceOnUse"><stop offset="0" stop-color="#1a6dff"/><stop offset="1" stop-color="#c822ff"/></linearGradient><path fill="url(#9u6zqN3Bt2WL6GDEge3Qlb)" d="M51.629,32l4.33-7.5c0.178-0.31,0.178-0.69,0-1l-4.619-8c-0.179-0.31-0.509-0.5-0.866-0.5	h-8.659l-4.33-7.5C37.306,7.19,36.976,7,36.619,7h-9.237c-0.357,0-0.688,0.19-0.866,0.5l-4.33,7.5h-8.658	c-0.357,0-0.688,0.19-0.866,0.5l-4.619,8c-0.178,0.31-0.178,0.69,0,1l4.33,7.5l-4.33,7.5c-0.178,0.31-0.178,0.69,0,1l4.619,8	c0.179,0.31,0.509,0.5,0.866,0.5h8.658l4.33,7.5c0.179,0.31,0.509,0.5,0.866,0.5h9.237c0.357,0,0.688-0.19,0.866-0.5l4.33-7.5h8.659	c0.357,0,0.688-0.19,0.866-0.5l4.619-8c0.178-0.31,0.178-0.69,0-1L51.629,32z M53.938,24l-4.042,7h-8.083l-4.041-6.999L41.815,17	h8.082L53.938,24z M36.04,39h-8.079l-4.041-7l4.041-7h8.079l4.042,7L36.04,39z M27.958,9h8.083l4.041,6.999L36.04,23h-8.079	l-4.043-7.002L27.958,9z M14.104,17h8.081l4.043,7.002L22.188,31h-8.083l-4.041-7L14.104,17z M10.063,40l4.041-7h8.083l4.04,6.998	L22.185,47h-8.081L10.063,40z M36.042,55h-8.083l-4.04-6.998L27.961,41h8.079l4.042,7.001L36.042,55z M49.897,47h-8.082	l-4.042-7.001L41.814,33h8.083l4.042,7L49.897,47z"/></svg>